<svg width="77" height="15" viewBox="0 0 77 15" fill="none" xmlns="http://www.w3.org/2000/svg">
<path d="M5.08523 14.7727C7.30114 14.7727 8.92045 13.6648 9.43182 12.017L7.8125 11.5625C7.38636 12.6989 6.39915 13.267 5.08523 13.267C3.1179 13.267 1.76136 11.9957 1.68324 9.65909H9.60227V8.94886C9.60227 4.88636 7.1875 3.49432 4.91477 3.49432C1.96023 3.49432 0 5.82386 0 9.17614C0 12.5284 1.93182 14.7727 5.08523 14.7727ZM1.68324 8.21023C1.79688 6.51278 2.99716 5 4.91477 5C6.73295 5 7.89773 6.36364 7.89773 8.21023H1.68324Z" fill="#1E2229"/>
<path d="M11.2134 2.20881H15.7091V14.5455H18.3227V2.20881H22.8185V0H11.2134V2.20881Z" fill="#1E2229"/>
<path d="M26.3969 14.7656C28.1085 14.7656 29.1313 13.9631 29.6 13.0469H29.6852V14.5455H32.1568V7.24432C32.1568 4.3608 29.806 3.49432 27.725 3.49432C25.431 3.49432 23.6696 4.51705 23.1014 6.50568L25.502 6.84659C25.7577 6.10085 26.4821 5.46165 27.7392 5.46165C28.9324 5.46165 29.5858 6.07244 29.5858 7.14489V7.1875C29.5858 7.92614 28.8116 7.96165 26.8869 8.16761C24.7705 8.39489 22.7463 9.02699 22.7463 11.4844C22.7463 13.6293 24.3159 14.7656 26.3969 14.7656ZM27.0645 12.8764C25.992 12.8764 25.225 12.3864 25.225 11.4418C25.225 10.4545 26.0844 10.0426 27.2349 9.87926C27.9097 9.78693 29.2591 9.61648 29.5929 9.34659V10.6321C29.5929 11.8466 28.6128 12.8764 27.0645 12.8764Z" fill="#1E2229"/>
<path d="M37.1131 8.15341C37.1131 6.5767 38.0648 5.66761 39.4213 5.66761C40.7494 5.66761 41.5449 6.54119 41.5449 7.99716V14.5455H44.1159V7.59943C44.123 4.9858 42.6315 3.49432 40.3801 3.49432C38.7466 3.49432 37.6244 4.27557 37.1273 5.49006H36.9994V3.63636H34.542V14.5455H37.1131V8.15341Z" fill="#1E2229"/>
<path d="M49.1006 0H46.5295V14.5455H49.1006V0Z" fill="#1E2229"/>
<path d="M56.3029 14.7585C59.4989 14.7585 61.5302 12.5071 61.5302 9.13352C61.5302 5.75284 59.4989 3.49432 56.3029 3.49432C53.1069 3.49432 51.0756 5.75284 51.0756 9.13352C51.0756 12.5071 53.1069 14.7585 56.3029 14.7585ZM56.3171 12.6989C54.5486 12.6989 53.6822 11.1222 53.6822 9.12642C53.6822 7.13068 54.5486 5.53267 56.3171 5.53267C58.0572 5.53267 58.9237 7.13068 58.9237 9.12642C58.9237 11.1222 58.0572 12.6989 56.3171 12.6989Z" fill="#1E2229"/>
<path d="M72.8856 3.63636H70.1512L67.637 11.7401H67.5234L65.0163 3.63636H62.2748L66.1597 14.5455H69.0006L72.8856 3.63636Z" fill="#1E2229"/>
</svg>
