<svg width="22" height="22" viewBox="0 0 22 22" fill="none" xmlns="http://www.w3.org/2000/svg">
<path d="M5.00645 4.06327C6.66979 2.62196 8.79777 1.82995 10.9987 1.83302C16.0614 1.83302 20.1654 5.93693 20.1654 10.9997C20.1654 12.9577 19.5512 14.7727 18.5062 16.2613L15.582 10.9997H18.332C18.3321 9.56201 17.9097 8.156 17.1171 6.9565C16.3246 5.757 15.197 4.81691 13.8744 4.25313C12.5519 3.68935 11.0929 3.52674 9.67866 3.78553C8.26446 4.04432 6.95753 4.71309 5.92036 5.70868L5.00645 4.06327ZM16.9909 17.9361C15.3276 19.3774 13.1996 20.1694 10.9987 20.1663C5.93595 20.1663 1.83203 16.0624 1.83203 10.9997C1.83203 9.04168 2.4462 7.22668 3.4912 5.73802L6.41536 10.9997H3.66536C3.66525 12.4374 4.08772 13.8434 4.88026 15.0429C5.67279 16.2424 6.80043 17.1825 8.12295 17.7462C9.44547 18.31 10.9045 18.4726 12.3187 18.2138C13.7329 17.955 15.0399 17.2863 16.077 16.2907L16.9909 17.9361Z" fill="white"/>
</svg>
