<svg width="18" height="18" viewBox="0 0 18 18" fill="none" xmlns="http://www.w3.org/2000/svg">
<path d="M3 16.5C3 14.9087 3.63214 13.3826 4.75736 12.2574C5.88258 11.1321 7.4087 10.5 9 10.5C10.5913 10.5 12.1174 11.1321 13.2426 12.2574C14.3679 13.3826 15 14.9087 15 16.5H13.5C13.5 15.3065 13.0259 14.1619 12.182 13.318C11.3381 12.4741 10.1935 12 9 12C7.80653 12 6.66193 12.4741 5.81802 13.318C4.97411 14.1619 4.5 15.3065 4.5 16.5H3ZM9 9.75C6.51375 9.75 4.5 7.73625 4.5 5.25C4.5 2.76375 6.51375 0.75 9 0.75C11.4862 0.75 13.5 2.76375 13.5 5.25C13.5 7.73625 11.4862 9.75 9 9.75ZM9 8.25C10.6575 8.25 12 6.9075 12 5.25C12 3.5925 10.6575 2.25 9 2.25C7.3425 2.25 6 3.5925 6 5.25C6 6.9075 7.3425 8.25 9 8.25Z" fill="#1E2229"/>
</svg>
